<?xml version="1.0" encoding="utf-8"?>
<!-- Generator: Adobe Illustrator 16.0.0, SVG Export Plug-In . SVG Version: 6.00 Build 0)  -->
<!DOCTYPE svg PUBLIC "-//W3C//DTD SVG 1.1//EN" "http://www.w3.org/Graphics/SVG/1.1/DTD/svg11.dtd">
<svg version="1.1" id="Layer_1" xmlns="http://www.w3.org/2000/svg" xmlns:xlink="http://www.w3.org/1999/xlink" x="0px" y="0px"
	 width="595.28px" height="323px" viewBox="0 0 595.28 323" enable-background="new 0 0 595.28 323" xml:space="preserve">
<g>
	<linearGradient id="SVGID_1_" gradientUnits="userSpaceOnUse" x1="233.7314" y1="92.2402" x2="319.3145" y2="92.2402">
		<stop  offset="0" style="stop-color:#F26722"/>
		<stop  offset="0.2581" style="stop-color:#F8991D"/>
		<stop  offset="0.3558" style="stop-color:#F8951D"/>
		<stop  offset="0.4848" style="stop-color:#F68A1F"/>
		<stop  offset="0.6307" style="stop-color:#F47621"/>
		<stop  offset="0.6935" style="stop-color:#F36C21"/>
		<stop  offset="0.7519" style="stop-color:#F47621"/>
		<stop  offset="0.9128" style="stop-color:#F78E1E"/>
		<stop  offset="1" style="stop-color:#F8971D"/>
	</linearGradient>
	<polygon fill="url(#SVGID_1_)" points="233.731,143.642 248.584,143.642 294.243,63.793 304.695,81.397 269.213,145.208 
		283.791,145.208 319.314,81.63 294.56,39.272 	"/>
	<linearGradient id="SVGID_2_" gradientUnits="userSpaceOnUse" x1="290.8584" y1="123.2046" x2="356.4043" y2="123.2046">
		<stop  offset="0" style="stop-color:#00ACED"/>
		<stop  offset="0.2581" style="stop-color:#006DB8"/>
		<stop  offset="0.6935" style="stop-color:#0092D7"/>
		<stop  offset="1" style="stop-color:#0063B0"/>
	</linearGradient>
	<polygon fill="url(#SVGID_2_)" points="290.858,145.208 316.779,101.201 330.55,101.201 336.051,111.103 323.948,111.103 
		311.236,133.657 348.703,133.657 356.404,145.208 	"/>
	<linearGradient id="SVGID_3_" gradientUnits="userSpaceOnUse" x1="204.5762" y1="171.7632" x2="366.8564" y2="171.7632">
		<stop  offset="0" style="stop-color:#F26722"/>
		<stop  offset="0.2581" style="stop-color:#F8991D"/>
		<stop  offset="0.6935" style="stop-color:#F47721"/>
		<stop  offset="1" style="stop-color:#F8971D"/>
	</linearGradient>
	<polygon fill="url(#SVGID_3_)" points="359.705,150.542 366.856,162.645 237.032,162.645 226.03,180.965 248.584,180.965 
		255.186,167.973 269.404,167.973 254.085,192.984 204.576,192.984 229.881,150.542 	"/>
</g>
<g>
	<path fill="#0064B1" d="M62.175,261.731c0.403,0.47,0.873,1.342,0.873,2.55c0,2.013-2.147,3.087-4.563,3.087
		c-2.617-0.067-3.892-0.939-3.892-2.953c0-1.477,0.47-2.55,1.141-3.289v-12.146c-0.738-0.738-1.141-2.013-1.141-3.087
		c0-1.007,0.537-2.617,1.141-3.288v-10c-0.537-0.201-1.342-1.745-1.342-2.953c0-1.275,0.403-2.416,1.342-2.55
		c-0.134-2.215,2.215-3.289,4.228-3.289c1.678,0,2.818,0.939,2.282,2.282l15.368-2.214c1.006-0.134,1.543-0.738,2.483-0.738
		c2.081,0,3.758,1.074,3.691,2.886c0,3.087-1.007,4.093-3.624,4.093c-0.939,0-1.678-0.201-2.483-0.604l-15.502,2.282v10.603
		l14.361-2.08c0.537-0.47,1.476-0.873,2.886-0.873c1.275,0,2.483,1.946,2.483,3.288c0,2.886-1.007,3.758-3.221,3.758
		c-0.805,0-1.543-0.067-2.349-0.403l-14.16,2.014V261.731z"/>
	<path fill="#0064B1" d="M88.884,228.782c-0.269-0.604-0.671-1.477-0.671-2.282c0-2.886,0.806-3.624,4.094-3.624
		c1.812,0,3.825,1.141,3.825,3.154c0,1.208-0.403,2.147-1.007,2.953v33.42c0.738,0.604,1.074,1.275,1.074,2.013
		c0,1.141-1.678,2.818-4.026,2.818c-2.08,0-3.892-1.141-3.892-3.288c0-0.604,0.268-1.141,0.604-1.745V228.782z"/>
	<path fill="#0064B1" d="M128.612,245.357c0,3.02-2.081,5.771-17.649,8.522l-3.087,0.537c-0.335,1.074-0.47,2.282-0.47,3.624
		c0,3.355,1.745,4.698,4.631,4.698c4.63,0,8.522-2.685,9.73-4.496c-0.201-1.543,1.141-2.953,3.355-2.953
		c2.483,0,3.02,1.611,3.02,2.953c0,1.879-5.838,9.73-16.844,9.73c-5.704,0-10.066-2.483-10.066-9.395
		c0-12.482,8.791-21.475,17.583-21.475C126.397,237.103,128.612,242.74,128.612,245.357z M109.083,249.652
		c11.878-2.081,13.556-3.087,13.556-4.027c0-1.61-1.141-3.422-4.094-3.422C114.72,242.203,111.096,245.357,109.083,249.652z"/>
	<path fill="#0064B1" d="M137.871,265.557c-0.067,1.007-0.201,2.081-2.55,2.081c-1.141,0-3.355-1.141-3.355-3.557
		c0-1.543,0.805-2.282,1.61-2.282c2.483-3.154,5.167-6.308,7.516-9.328c-1.745-1.409-5.369-5.167-7.852-9.328
		c-0.671-0.269-1.141-0.939-1.141-2.147c0-1.745,2.08-3.355,4.026-3.355s2.416,1.477,2.55,2.617
		c1.275,3.289,4.093,5.771,6.241,7.785c1.879-2.617,4.497-5.637,6.845-8.456c0-1.074,0.47-2.349,2.416-2.349
		c1.678,0,3.624,1.543,3.624,3.288c0,1.208-0.604,2.013-1.476,2.416c-2.416,3.02-4.899,6.04-7.181,8.992
		c5.1,4.966,9.932,10.604,9.932,13.288c0,1.543-1.208,2.685-3.087,2.685c-1.006,0-1.946-0.47-2.55-1.812
		c-2.081-3.355-5.101-7.114-8.053-9.865L137.871,265.557z"/>
	<path fill="#0064B1" d="M170.35,242.874v19.193c0.336,0.269,0.873,1.074,0.873,1.879c0,2.282-2.818,3.288-4.899,3.288
		c-1.745,0-3.02-1.208-3.02-3.154c0-1.208,0.537-1.946,0.806-2.282v-18.656c-0.403-0.403-0.604-1.141-0.604-1.745
		c0-1.879,0.134-3.893,4.228-3.893c1.543,0,3.355,1.745,3.289,3.154C171.021,241.8,170.484,242.472,170.35,242.874z
		 M171.156,227.775c0,3.959-1.946,6.241-4.027,6.241c-2.147,0-3.02-1.342-3.02-3.221c0-3.423,1.476-6.107,4.026-6.107
		C170.082,224.688,171.156,225.829,171.156,227.775z"/>
	<path fill="#0064B1" d="M184.845,243.008l0.134,0.134c3.355-2.886,8.388-5.503,13.824-5.503c3.959,0,6.509,2.081,6.509,6.845
		c0,9.328-12.281,23.354-24.024,23.354c-2.483,0-3.758-0.738-3.758-2.751c0-0.805,0.537-1.946,1.074-2.282v-35.098
		c-0.604-0.805-0.873-1.61-0.873-2.416c0-1.745,2.953-2.483,4.563-2.483c1.543,0,3.087,0.537,3.087,2.483
		c0,0.604-0.201,1.275-0.537,1.812V243.008z M184.845,261.731c6.711-2.282,14.093-9.261,14.093-16.911
		c0-1.678-2.215-1.879-2.953-1.879c-2.617,0-7.314,1.879-11.14,5.771V261.731z"/>
	<path fill="#0064B1" d="M210.882,228.782c-0.269-0.604-0.671-1.477-0.671-2.282c0-2.886,0.806-3.624,4.094-3.624
		c1.812,0,3.825,1.141,3.825,3.154c0,1.208-0.403,2.147-1.007,2.953v33.42c0.738,0.604,1.074,1.275,1.074,2.013
		c0,1.141-1.678,2.818-4.026,2.818c-2.08,0-3.892-1.141-3.892-3.288c0-0.604,0.269-1.141,0.604-1.745V228.782z"/>
	<path fill="#0064B1" d="M250.61,245.357c0,3.02-2.081,5.771-17.649,8.522l-3.087,0.537c-0.335,1.074-0.47,2.282-0.47,3.624
		c0,3.355,1.745,4.698,4.631,4.698c4.63,0,8.522-2.685,9.73-4.496c-0.201-1.543,1.141-2.953,3.355-2.953
		c2.483,0,3.02,1.611,3.02,2.953c0,1.879-5.838,9.73-16.844,9.73c-5.704,0-10.066-2.483-10.066-9.395
		c0-12.482,8.791-21.475,17.583-21.475C248.395,237.103,250.61,242.74,250.61,245.357z M231.081,249.652
		c11.878-2.081,13.556-3.087,13.556-4.027c0-1.61-1.141-3.422-4.094-3.422C236.718,242.203,233.094,245.357,231.081,249.652z"/>
	<path fill="#0064B1" d="M300.268,229.721c0,2.281-1.477,3.557-3.557,3.557c-1.879,0-2.751-0.873-3.154-2.685
		c-0.201-1.208-2.483-2.214-5.57-2.214c-8.321,0-14.361,13.153-14.361,21.609c0,8.59,4.362,12.482,8.523,12.482
		c4.094,0,8.59-2.617,10.536-5.301c0.134-1.745,0.738-3.825,3.557-3.825c2.416,0,3.489,1.745,3.489,2.818s-0.269,2.282-1.879,4.161
		c-2.953,3.154-9.529,7.852-16.576,7.785c-8.254,0-14.16-5.973-14.16-18.522c0-10.066,7.919-26.709,20.535-26.709
		C295.167,222.876,300.268,226.5,300.268,229.721z"/>
	<path fill="#0064B1" d="M323.89,244.149c0-1.745-0.671-2.617-2.416-2.617c-3.69,0-6.777,1.275-9.261,2.885
		c0.134,0.537-0.872,1.879-2.818,1.879c-1.61,0-2.818-1.812-2.818-3.154c0-1.275,1.61-3.02,3.02-2.751
		c3.489-2.214,8.188-3.691,14.228-3.691c3.422,0,6.106,2.215,6.106,6.04v20.535c0.336,0.269,0.537,0.939,0.537,1.611
		c0,2.013-2.349,2.416-4.43,2.416c-2.214,0-2.818-0.94-2.818-2.147c0-0.604,0.269-1.074,0.537-1.611v-3.02h-0.135
		c-4.765,5.235-9.395,7.583-14.965,7.583c-3.423,0-6.174-1.946-6.174-5.369c0-5.906,7.314-13.556,21.407-15.167V244.149z
		 M323.756,251.732c-8.926,1.074-15.1,6.442-15.1,9.462c0,1.141,0.939,1.543,2.215,1.543c4.966,0,12.885-5.838,12.885-8.925V251.732
		z"/>
	<path fill="#0064B1" d="M344.626,245.424h0.066c3.96-5.369,7.718-7.919,13.489-7.919c4.63,0,7.852,3.423,7.852,8.993
		c0,13.489-10.536,21.206-17.649,21.206c-1.477,0-2.752-0.47-3.758-1.409v15.636c0.335,0.604,0.604,1.141,0.604,1.946
		c0,1.946-1.274,2.818-4.362,2.818c-1.543,0-3.087-0.403-3.087-2.416c0-1.074,0.269-1.879,0.604-2.483v-39.393
		c-0.336-0.47-0.671-1.141-0.671-1.946c0-2.349,1.812-3.154,3.355-3.154c2.886,0,4.026,1.007,4.026,2.886
		c0,0.671-0.403,1.409-0.47,1.812V245.424z M344.626,260.322c0.805,1.543,2.013,2.215,3.422,2.215
		c5.033,0,11.677-7.046,11.677-15.234c0-2.416-1.006-4.429-3.355-4.429c-1.879,0-3.623,0.738-6.777,3.959
		c-1.678,1.745-3.49,4.094-4.966,6.778V260.322z"/>
	<path fill="#0064B1" d="M378.044,242.874v19.193c0.335,0.269,0.872,1.074,0.872,1.879c0,2.282-2.818,3.288-4.898,3.288
		c-1.745,0-3.021-1.208-3.021-3.154c0-1.208,0.537-1.946,0.806-2.282v-18.656c-0.402-0.403-0.604-1.141-0.604-1.745
		c0-1.879,0.135-3.893,4.229-3.893c1.543,0,3.355,1.745,3.288,3.154C378.715,241.8,378.178,242.472,378.044,242.874z
		 M378.849,227.775c0,3.959-1.946,6.241-4.026,6.241c-2.147,0-3.02-1.342-3.02-3.221c0-3.423,1.477-6.107,4.026-6.107
		C377.775,224.688,378.849,225.829,378.849,227.775z"/>
	<path fill="#0064B1" d="M390.659,232.808c-0.269-0.335-0.402-0.604-0.402-1.678c0-1.812,1.745-2.349,4.228-2.349
		c1.409,0,3.021,0.268,3.021,2.013c0,0.537-0.202,1.141-0.604,1.678v4.093l8.456-1.342c0.335-0.336,0.738-0.537,1.274-0.537
		c1.611,0,2.483,1.342,2.483,2.685c0,2.147-0.939,3.221-2.349,3.221c-0.47,0-0.873-0.067-1.074-0.268l-8.791,1.409v18.119
		c0,1.074,0.336,1.879,1.141,1.879c1.343,0,6.577-2.953,9.328-6.375c-0.066-1.477,0.939-2.617,2.551-2.617
		c2.684,0,3.422,1.342,3.422,3.221c0,2.617-11.408,11.811-17.448,11.811c-3.288,0-5.234-2.416-5.234-5.637V242.74l-4.361,0.671
		c-0.336,0.335-0.738,0.537-1.343,0.604c-1.61-0.067-2.685-1.141-2.685-3.154c0-1.678,1.208-2.886,2.685-2.886
		c0.47,0,0.939,0.202,1.141,0.403l4.563-0.738V232.808z"/>
	<path fill="#0064B1" d="M436.023,244.149c0-1.745-0.671-2.617-2.416-2.617c-3.69,0-6.777,1.275-9.261,2.885
		c0.135,0.537-0.872,1.879-2.818,1.879c-1.61,0-2.818-1.812-2.818-3.154c0-1.275,1.61-3.02,3.02-2.751
		c3.49-2.214,8.188-3.691,14.228-3.691c3.422,0,6.106,2.215,6.106,6.04v20.535c0.336,0.269,0.537,0.939,0.537,1.611
		c0,2.013-2.349,2.416-4.43,2.416c-2.214,0-2.818-0.94-2.818-2.147c0-0.604,0.269-1.074,0.537-1.611v-3.02h-0.135
		c-4.765,5.235-9.395,7.583-14.965,7.583c-3.422,0-6.174-1.946-6.174-5.369c0-5.906,7.314-13.556,21.407-15.167V244.149z
		 M435.89,251.732c-8.926,1.074-15.1,6.442-15.1,9.462c0,1.141,0.939,1.543,2.215,1.543c4.966,0,12.885-5.838,12.885-8.925V251.732z
		"/>
	<path fill="#0064B1" d="M450.518,228.782c-0.269-0.604-0.671-1.477-0.671-2.282c0-2.886,0.805-3.624,4.093-3.624
		c1.813,0,3.825,1.141,3.825,3.154c0,1.208-0.402,2.147-1.006,2.953v33.42c0.738,0.604,1.073,1.275,1.073,2.013
		c0,1.141-1.678,2.818-4.026,2.818c-2.08,0-3.893-1.141-3.893-3.288c0-0.604,0.269-1.141,0.604-1.745V228.782z"/>
	<path fill="#0064B1" d="M508.498,229.721c0,2.281-1.477,3.557-3.558,3.557c-1.879,0-2.751-0.873-3.153-2.685
		c-0.202-1.208-2.483-2.214-5.57-2.214c-8.321,0-14.361,13.153-14.361,21.609c0,8.59,4.362,12.482,8.522,12.482
		c4.094,0,8.59-2.617,10.536-5.301c0.135-1.745,0.738-3.825,3.557-3.825c2.416,0,3.49,1.745,3.49,2.818s-0.269,2.282-1.879,4.161
		c-2.953,3.154-9.529,7.852-16.576,7.785c-8.254,0-14.16-5.973-14.16-18.522c0-10.066,7.919-26.709,20.535-26.709
		C503.397,222.876,508.498,226.5,508.498,229.721z"/>
	<path fill="#0064B1" d="M540.643,249.518c0,5.637-3.557,10.603-5.167,12.213c-5.168,5.101-8.456,6.375-14.361,6.375
		c-3.759,0-9.261-3.154-9.261-10.67c0-11.878,8.455-20.602,18.589-20.602C538.696,236.834,540.643,244.686,540.643,249.518z
		 M518.161,256.43c0,3.892,2.014,6.442,4.43,6.442c2.952,0,5.301-1.141,7.717-3.49c2.551-2.483,4.026-5.973,4.026-9.529
		c0-4.362-1.342-7.785-5.167-7.785C523.731,242.069,518.161,248.847,518.161,256.43z"/>
	<path fill="#0064B1" d="M544.064,263.409c0-2.013,1.477-4.496,4.16-4.496c1.88,0,3.222,1.141,3.222,4.026
		c0,2.215-1.141,4.497-4.161,4.497C545.876,267.436,544.064,266.161,544.064,263.409z"/>
</g>
</svg>
